<svg id="wave" style="transform:rotate(0deg); transition: 0.3s" viewBox="0 0 1440 250" version="1.1" xmlns="http://www.w3.org/2000/svg"><defs><linearGradient id="sw-gradient-0" x1="0" x2="0" y1="1" y2="0"><stop stop-color="rgba(0, 0, 37, 1)" offset="0%"></stop><stop stop-color="rgba(0, 0, 37, 1)" offset="100%"></stop></linearGradient></defs><path style="transform:translate(0, 0px); opacity:1" fill="url(#sw-gradient-0)" d="M0,25L40,20.8C80,17,160,8,240,4.2C320,0,400,0,480,25C560,50,640,100,720,120.8C800,142,880,133,960,120.8C1040,108,1120,92,1200,83.3C1280,75,1360,75,1440,75C1520,75,1600,75,1680,83.3C1760,92,1840,108,1920,104.2C2000,100,2080,75,2160,79.2C2240,83,2320,117,2400,145.8C2480,175,2560,200,2640,195.8C2720,192,2800,158,2880,145.8C2960,133,3040,142,3120,141.7C3200,142,3280,133,3360,116.7C3440,100,3520,75,3600,70.8C3680,67,3760,83,3840,87.5C3920,92,4000,83,4080,104.2C4160,125,4240,175,4320,166.7C4400,158,4480,92,4560,79.2C4640,67,4720,108,4800,125C4880,142,4960,133,5040,108.3C5120,83,5200,42,5280,50C5360,58,5440,117,5520,133.3C5600,150,5680,125,5720,112.5L5760,100L5760,250L5720,250C5680,250,5600,250,5520,250C5440,250,5360,250,5280,250C5200,250,5120,250,5040,250C4960,250,4880,250,4800,250C4720,250,4640,250,4560,250C4480,250,4400,250,4320,250C4240,250,4160,250,4080,250C4000,250,3920,250,3840,250C3760,250,3680,250,3600,250C3520,250,3440,250,3360,250C3280,250,3200,250,3120,250C3040,250,2960,250,2880,250C2800,250,2720,250,2640,250C2560,250,2480,250,2400,250C2320,250,2240,250,2160,250C2080,250,2000,250,1920,250C1840,250,1760,250,1680,250C1600,250,1520,250,1440,250C1360,250,1280,250,1200,250C1120,250,1040,250,960,250C880,250,800,250,720,250C640,250,560,250,480,250C400,250,320,250,240,250C160,250,80,250,40,250L0,250Z"></path></svg>